<?xml version="1.0" encoding="UTF-8" standalone="no"?>
<!DOCTYPE svg PUBLIC "-//W3C//DTD SVG 1.1//EN"
 "http://www.w3.org/Graphics/SVG/1.1/DTD/svg11.dtd">
<!-- Generated by graphviz version 2.43.0 (0)
 -->
<!-- Title: %3 Pages: 1 -->
<svg width="546pt" height="704pt"
 viewBox="0.00 0.00 546.00 704.00" xmlns="http://www.w3.org/2000/svg" xmlns:xlink="http://www.w3.org/1999/xlink">
<g id="graph0" class="graph" transform="scale(1 1) rotate(0) translate(4 700)">
<title>%3</title>
<polygon fill="white" stroke="transparent" points="-4,4 -4,-700 542,-700 542,4 -4,4"/>
<!-- node0x504000000010 -->
<g id="node1" class="node">
<title>node0x504000000010</title>
<polygon fill="brown" stroke="brown" points="164,-603.5 164,-695.5 401,-695.5 401,-603.5 164,-603.5"/>
<text text-anchor="middle" x="282.5" y="-680.3" font-family="Helvetica,Arial,sans-serif" font-size="14.00">parent = (nil)</text>
<polyline fill="none" stroke="brown" points="164,-672.5 401,-672.5 "/>
<text text-anchor="middle" x="282.5" y="-657.3" font-family="Helvetica,Arial,sans-serif" font-size="14.00">node = 0x504000000010</text>
<polyline fill="none" stroke="brown" points="164,-649.5 401,-649.5 "/>
<text text-anchor="middle" x="282.5" y="-634.3" font-family="Helvetica,Arial,sans-serif" font-size="14.00">sin</text>
<polyline fill="none" stroke="brown" points="164,-626.5 401,-626.5 "/>
<text text-anchor="middle" x="201" y="-611.3" font-family="Helvetica,Arial,sans-serif" font-size="14.00">left = (nil)</text>
<polyline fill="none" stroke="brown" points="238,-603.5 238,-626.5 "/>
<text text-anchor="middle" x="319.5" y="-611.3" font-family="Helvetica,Arial,sans-serif" font-size="14.00">right = 0x504000000110</text>
</g>
<!-- node0x504000000110 -->
<g id="node2" class="node">
<title>node0x504000000110</title>
<polygon fill="brown" stroke="brown" points="160.5,-402.5 160.5,-494.5 478.5,-494.5 478.5,-402.5 160.5,-402.5"/>
<text text-anchor="middle" x="319.5" y="-479.3" font-family="Helvetica,Arial,sans-serif" font-size="14.00">parent = (nil)</text>
<polyline fill="none" stroke="brown" points="160.5,-471.5 478.5,-471.5 "/>
<text text-anchor="middle" x="319.5" y="-456.3" font-family="Helvetica,Arial,sans-serif" font-size="14.00">node = 0x504000000110</text>
<polyline fill="none" stroke="brown" points="160.5,-448.5 478.5,-448.5 "/>
<text text-anchor="middle" x="319.5" y="-433.3" font-family="Helvetica,Arial,sans-serif" font-size="14.00">+</text>
<polyline fill="none" stroke="brown" points="160.5,-425.5 478.5,-425.5 "/>
<text text-anchor="middle" x="238" y="-410.3" font-family="Helvetica,Arial,sans-serif" font-size="14.00">left = 0x504000000090</text>
<polyline fill="none" stroke="brown" points="315.5,-402.5 315.5,-425.5 "/>
<text text-anchor="middle" x="397" y="-410.3" font-family="Helvetica,Arial,sans-serif" font-size="14.00">right = 0x504000000150</text>
</g>
<!-- node0x504000000010&#45;&gt;node0x504000000110 -->
<g id="edge1" class="edge">
<title>node0x504000000010:f2&#45;&gt;node0x504000000110</title>
<path fill="none" stroke="black" d="M319.5,-603C319.5,-570.34 319.5,-533.77 319.5,-504.52"/>
<polygon fill="black" stroke="black" points="323,-504.5 319.5,-494.5 316,-504.5 323,-504.5"/>
</g>
<!-- node0x504000000090 -->
<g id="node3" class="node">
<title>node0x504000000090</title>
<polygon fill="brown" stroke="brown" points="26.5,-201.5 26.5,-293.5 344.5,-293.5 344.5,-201.5 26.5,-201.5"/>
<text text-anchor="middle" x="185.5" y="-278.3" font-family="Helvetica,Arial,sans-serif" font-size="14.00">parent = 0x504000000110</text>
<polyline fill="none" stroke="brown" points="26.5,-270.5 344.5,-270.5 "/>
<text text-anchor="middle" x="185.5" y="-255.3" font-family="Helvetica,Arial,sans-serif" font-size="14.00">node = 0x504000000090</text>
<polyline fill="none" stroke="brown" points="26.5,-247.5 344.5,-247.5 "/>
<text text-anchor="middle" x="185.5" y="-232.3" font-family="Helvetica,Arial,sans-serif" font-size="14.00">*</text>
<polyline fill="none" stroke="brown" points="26.5,-224.5 344.5,-224.5 "/>
<text text-anchor="middle" x="104" y="-209.3" font-family="Helvetica,Arial,sans-serif" font-size="14.00">left = 0x504000000050</text>
<polyline fill="none" stroke="brown" points="181.5,-201.5 181.5,-224.5 "/>
<text text-anchor="middle" x="263" y="-209.3" font-family="Helvetica,Arial,sans-serif" font-size="14.00">right = 0x5040000000d0</text>
</g>
<!-- node0x504000000110&#45;&gt;node0x504000000090 -->
<g id="edge2" class="edge">
<title>node0x504000000110:f1&#45;&gt;node0x504000000090</title>
<path fill="none" stroke="black" d="M237.5,-402C237.5,-367.87 225.83,-331.63 213.54,-302.93"/>
<polygon fill="black" stroke="black" points="216.62,-301.23 209.37,-293.5 210.22,-304.06 216.62,-301.23"/>
</g>
<!-- node0x504000000150 -->
<g id="node6" class="node">
<title>node0x504000000150</title>
<polygon fill="green" stroke="green" points="363,-201.5 363,-293.5 538,-293.5 538,-201.5 363,-201.5"/>
<text text-anchor="middle" x="450.5" y="-278.3" font-family="Helvetica,Arial,sans-serif" font-size="14.00">parent = 0x504000000110</text>
<polyline fill="none" stroke="green" points="363,-270.5 538,-270.5 "/>
<text text-anchor="middle" x="450.5" y="-255.3" font-family="Helvetica,Arial,sans-serif" font-size="14.00">node = 0x504000000150</text>
<polyline fill="none" stroke="green" points="363,-247.5 538,-247.5 "/>
<text text-anchor="middle" x="450.5" y="-232.3" font-family="Helvetica,Arial,sans-serif" font-size="14.00">3.000</text>
<polyline fill="none" stroke="green" points="363,-224.5 538,-224.5 "/>
<text text-anchor="middle" x="405" y="-209.3" font-family="Helvetica,Arial,sans-serif" font-size="14.00">left = (nil)</text>
<polyline fill="none" stroke="green" points="447,-201.5 447,-224.5 "/>
<text text-anchor="middle" x="492.5" y="-209.3" font-family="Helvetica,Arial,sans-serif" font-size="14.00">right = (nil)</text>
</g>
<!-- node0x504000000110&#45;&gt;node0x504000000150 -->
<g id="edge8" class="edge">
<title>node0x504000000110:f2&#45;&gt;node0x504000000150</title>
<path fill="none" stroke="black" d="M397.5,-402C397.5,-367.93 409.31,-331.82 421.78,-303.19"/>
<polygon fill="black" stroke="black" points="425.1,-304.34 426.02,-293.78 418.72,-301.46 425.1,-304.34"/>
</g>
<!-- node0x504000000090&#45;&gt;node0x504000000110 -->
<g id="edge7" class="edge">
<title>node0x504000000090:parent&#45;&gt;node0x504000000110</title>
<path fill="none" stroke="black" d="M345.5,-282.5C356.87,-282.5 344.55,-344.44 333.3,-392.41"/>
<polygon fill="black" stroke="black" points="329.83,-391.87 330.92,-402.41 336.64,-393.49 329.83,-391.87"/>
</g>
<!-- node0x504000000050 -->
<g id="node4" class="node">
<title>node0x504000000050</title>
<polygon fill="green" stroke="green" points="0,-0.5 0,-92.5 175,-92.5 175,-0.5 0,-0.5"/>
<text text-anchor="middle" x="87.5" y="-77.3" font-family="Helvetica,Arial,sans-serif" font-size="14.00">parent = 0x504000000090</text>
<polyline fill="none" stroke="green" points="0,-69.5 175,-69.5 "/>
<text text-anchor="middle" x="87.5" y="-54.3" font-family="Helvetica,Arial,sans-serif" font-size="14.00">node = 0x504000000050</text>
<polyline fill="none" stroke="green" points="0,-46.5 175,-46.5 "/>
<text text-anchor="middle" x="87.5" y="-31.3" font-family="Helvetica,Arial,sans-serif" font-size="14.00">1.000</text>
<polyline fill="none" stroke="green" points="0,-23.5 175,-23.5 "/>
<text text-anchor="middle" x="42" y="-8.3" font-family="Helvetica,Arial,sans-serif" font-size="14.00">left = (nil)</text>
<polyline fill="none" stroke="green" points="84,-0.5 84,-23.5 "/>
<text text-anchor="middle" x="129.5" y="-8.3" font-family="Helvetica,Arial,sans-serif" font-size="14.00">right = (nil)</text>
</g>
<!-- node0x504000000090&#45;&gt;node0x504000000050 -->
<g id="edge3" class="edge">
<title>node0x504000000090:f1&#45;&gt;node0x504000000050</title>
<path fill="none" stroke="black" d="M103.5,-201C103.5,-168.28 99.86,-131.86 96.05,-102.7"/>
<polygon fill="black" stroke="black" points="99.51,-102.15 94.7,-92.71 92.57,-103.09 99.51,-102.15"/>
</g>
<!-- node0x5040000000d0 -->
<g id="node5" class="node">
<title>node0x5040000000d0</title>
<polygon fill="green" stroke="green" points="193,-0.5 193,-92.5 368,-92.5 368,-0.5 193,-0.5"/>
<text text-anchor="middle" x="280.5" y="-77.3" font-family="Helvetica,Arial,sans-serif" font-size="14.00">parent = 0x504000000090</text>
<polyline fill="none" stroke="green" points="193,-69.5 368,-69.5 "/>
<text text-anchor="middle" x="280.5" y="-54.3" font-family="Helvetica,Arial,sans-serif" font-size="14.00">node = 0x5040000000d0</text>
<polyline fill="none" stroke="green" points="193,-46.5 368,-46.5 "/>
<text text-anchor="middle" x="280.5" y="-31.3" font-family="Helvetica,Arial,sans-serif" font-size="14.00">2.000</text>
<polyline fill="none" stroke="green" points="193,-23.5 368,-23.5 "/>
<text text-anchor="middle" x="235" y="-8.3" font-family="Helvetica,Arial,sans-serif" font-size="14.00">left = (nil)</text>
<polyline fill="none" stroke="green" points="277,-0.5 277,-23.5 "/>
<text text-anchor="middle" x="322.5" y="-8.3" font-family="Helvetica,Arial,sans-serif" font-size="14.00">right = (nil)</text>
</g>
<!-- node0x504000000090&#45;&gt;node0x5040000000d0 -->
<g id="edge5" class="edge">
<title>node0x504000000090:f2&#45;&gt;node0x5040000000d0</title>
<path fill="none" stroke="black" d="M263.5,-201C263.5,-168.26 267.37,-131.83 271.41,-102.68"/>
<polygon fill="black" stroke="black" points="274.89,-103.09 272.85,-92.69 267.96,-102.09 274.89,-103.09"/>
</g>
<!-- node0x504000000050&#45;&gt;node0x504000000090 -->
<g id="edge4" class="edge">
<title>node0x504000000050:parent&#45;&gt;node0x504000000090</title>
<path fill="none" stroke="black" d="M176.5,-81.5C187.75,-81.5 188.59,-143.44 187.56,-191.41"/>
<polygon fill="black" stroke="black" points="184.06,-191.33 187.31,-201.41 191.06,-191.5 184.06,-191.33"/>
</g>
<!-- node0x5040000000d0&#45;&gt;node0x504000000090 -->
<g id="edge6" class="edge">
<title>node0x5040000000d0:parent&#45;&gt;node0x504000000090</title>
<path fill="none" stroke="black" d="M191.5,-81.5C180.26,-81.5 180.54,-143.44 182.44,-191.41"/>
<polygon fill="black" stroke="black" points="178.95,-191.57 182.87,-201.41 185.94,-191.27 178.95,-191.57"/>
</g>
<!-- node0x504000000150&#45;&gt;node0x504000000110 -->
<g id="edge9" class="edge">
<title>node0x504000000150:parent&#45;&gt;node0x504000000110</title>
<path fill="none" stroke="black" d="M361.5,-282.5C355.7,-282.5 341.25,-344.44 330.91,-392.41"/>
<polygon fill="black" stroke="black" points="327.44,-391.9 328.78,-402.41 334.29,-393.37 327.44,-391.9"/>
</g>
</g>
</svg>
